<svg xmlns="http://www.w3.org/2000/svg" viewBox="0 0 94.81 95.05"><defs><style>.cls-1{fill:#f0ecdf;}</style></defs><g id="Capa_2" data-name="Capa 2"><g id="Capa_1-2" data-name="Capa 1"><path class="cls-1" d="M94.81,64.89V30.5c-.19-4.72-.63-9.42-1.16-14.12a17.56,17.56,0,0,0-15-15A176.8,176.8,0,0,0,60.94.07,26.74,26.74,0,0,1,58.11,0H53.5c-.14,0-.29,0-.43,0H51.38a2.12,2.12,0,0,1-.71,0H44.15a4.82,4.82,0,0,1-.93,0H41.35a2,2,0,0,1-.42,0H36.75a22.75,22.75,0,0,1-2.61.07c-5.86,0-11.67.62-17.49,1.24A17.56,17.56,0,0,0,1.3,16.67C1,19.43.78,22.21.52,25S.1,30.56,0,33.35V60.47c0,1.38.08,2.76.16,4.13Q.57,71.47,1.3,78.29A17.56,17.56,0,0,0,16.15,93.63c4.17.56,8.37.83,12.57,1.15,1.65.13,3.29.21,4.94.27,1-.27,1.36-.91,1.49-2.14a80,80,0,0,0,.17-8.62c0-1.2-.32-1.37-1.57-1.32a40.14,40.14,0,0,1-6.85.12,11,11,0,0,1-9.36-6.91,15.16,15.16,0,0,0-6-7.36,3.42,3.42,0,0,1-.85-.71c-.2-.24-.43-.51-.32-.83s.47-.39.78-.42a7.19,7.19,0,0,1,3.55.44,10.54,10.54,0,0,1,4.69,3.94,22.55,22.55,0,0,0,2.13,2.81c3.41,3.68,8.11,4.46,12.76,2.43a2,2,0,0,0,1.23-1.42,14.35,14.35,0,0,1,2.4-5.18c.5-.69.33-1-.5-1.26a11.9,11.9,0,0,0-1.19-.23A46.37,46.37,0,0,1,30.07,67c-6.62-2.12-11.3-6.25-13.45-13a31.43,31.43,0,0,1-1.5-9.41,20.1,20.1,0,0,1,4.37-13.4,2.57,2.57,0,0,0,.59-2.49A18.84,18.84,0,0,1,20.45,18c.42-1.33.84-1.57,2.19-1.37A26.85,26.85,0,0,1,33,20.82a4.92,4.92,0,0,0,4,.64,45.71,45.71,0,0,1,11.23-1.23,47.44,47.44,0,0,1,10.67,1.26A4.55,4.55,0,0,0,62.5,21c1.35-.82,2.75-1.56,4.15-2.28a15.46,15.46,0,0,1,6.23-2c1.52-.09,1.84.14,2.31,1.56a18,18,0,0,1,.47,9.89,4,4,0,0,0,.54,3.36c.51.77,1,1.57,1.48,2.36a16.24,16.24,0,0,1,1.57,3.25,24.16,24.16,0,0,1,1,11.44,30,30,0,0,1-2.62,8.59C75.32,62,71.34,65,66.34,66.69a57.18,57.18,0,0,1-7.76,1.83c-1.28.26-1.47.67-.7,1.68a12.93,12.93,0,0,1,2.43,8V91.13a8.07,8.07,0,0,0,0,1.3c.24,1.56.66,2.25,1.4,2.54,1,0,2-.09,3-.15,4.48-.26,9-.55,13.41-1.12,6.94-.89,11.71-4.67,14.47-11A21.41,21.41,0,0,0,93.93,76C94.28,72.32,94.63,68.61,94.81,64.89Z"/></g></g></svg>