<svg xmlns="http://www.w3.org/2000/svg" viewBox="0 0 124.46 72"><defs><style>.cls-1{fill:#f0a1b3;}.cls-2{fill:#f0ecdf;}</style></defs><g id="Capa_2" data-name="Capa 2"><g id="OBJECTS"><path class="cls-1" d="M65.51.08C78.09-.63,89.46,3.51,100,10.55A39.69,39.69,0,0,1,114.32,27.3a116.49,116.49,0,0,1,10.06,36c.4,3.7-.74,5.75-3.5,6.54S116,69.68,115.35,67c-1.79-7.33-4.72-14.34-5.95-21.84A46.32,46.32,0,0,0,92.86,16.23a31,31,0,0,0-14.1-6.64c-8.91-1.69-18-2.41-27-.5C43.44,10.86,36,14.7,28.94,19.33c-3.88,2.55-6.41,6.51-8.78,10.42a72.22,72.22,0,0,0-6.83,14.47Q10.61,52.38,7.9,60.53a23.56,23.56,0,0,0-1.56,8c.06,1.71-.45,3.22-2.41,3.43S1.14,70.82.45,69.34a4.66,4.66,0,0,1-.4-2.67C1.84,54.68,4,42.79,8.93,31.58,17.12,13.14,32,3.9,51.49,1A79.32,79.32,0,0,1,65.51.08Z"/><path class="cls-2" d="M62,15.12c23.57-.57,46.08,21.36,45.31,45.67-.13,4.22-1.54,6.25-4.94,6.86-2.59.47-4.08-.7-4-3.31,0-1.3.36-2.58.49-3.87a23.24,23.24,0,0,0-3.66-15.59C86.57,31.37,73.57,26,58.35,25c-8.76-.62-16.28,2.41-22.82,8.57C26.77,41.78,22.74,52.05,20.8,63.46c-.24,1.41-.51,2.82-.77,4.22-.36,1.91-1.39,3.06-3.47,3a4.08,4.08,0,0,1-4-3.13,11.09,11.09,0,0,1,.07-4.66,81.85,81.85,0,0,1,7.47-22.54A46.83,46.83,0,0,1,62,15.12Z"/><path class="cls-1" d="M59.63,29.86c12.53.08,25.54,5.79,30.14,20.83A129.13,129.13,0,0,1,92.7,64.81c.53,2.84-1.28,4.76-4.47,5.2-2.72.37-4.29-.85-4.45-4.08a53.66,53.66,0,0,0-2.64-13.35A18.4,18.4,0,0,0,70.55,40.74a25.36,25.36,0,0,0-18.77-.87,13.8,13.8,0,0,0-7.27,5.69A84.56,84.56,0,0,0,34.25,65.69C33,69.27,31,70.46,27.44,70c-2.1-.24-3-1.16-3.12-3.28a2.91,2.91,0,0,1,0-.78C26.15,54.93,30,44.9,38.87,37.37,45.27,31.94,52.94,30.14,59.63,29.86Z"/><path class="cls-2" d="M62.28,43.93a13.22,13.22,0,0,1,11.44,5.71c2.93,4.06,3.84,8.79,4.26,13.6.22,2.51-2.36,4.25-5.92,4.38-2.53.09-3.79-1-4-3.7-.19-2.07-.07-4.17-.28-6.23C67.36,54.17,66,53,62.4,52.76c-5.79-.36-9.76,2.15-11.89,7.58-.67,1.69-1.22,3.43-1.82,5.15a6.44,6.44,0,0,1-4.8,4.19c-2.18.6-3.54-.32-3.89-2.56a9,9,0,0,1,0-1.56C40.31,54.17,50.76,44,62.28,43.93Z"/><path class="cls-1" d="M59,60.21a7.23,7.23,0,0,1,6,3.18,2.6,2.6,0,0,1,0,3.55,2.34,2.34,0,0,1-3.22.4c-1.83-1.29-3.47-1.47-5.35-.1a2.15,2.15,0,0,1-2.86-.4,2.81,2.81,0,0,1-.59-3.23C53.73,61.4,56.06,60.09,59,60.21Z"/></g></g></svg>