<svg xmlns="http://www.w3.org/2000/svg" viewBox="0 0 299.27 93.21"><defs><style>.cls-1{fill:#f0a1b3;}.cls-2{fill:#f0ecdf;}</style></defs><g id="Capa_2" data-name="Capa 2"><g id="OBJECTS"><path class="cls-1" d="M149.1,79.29a76.65,76.65,0,0,0-30.45,5.4A151,151,0,0,1,100,90.75,82.61,82.61,0,0,1,61.12,91c-5.18-1.23-10.29-2.58-15.37-4a94.63,94.63,0,0,0-32.84-3.36,16.25,16.25,0,0,1-5.44-.15c-3.69-1-7-2.08-7.35-5.27-.32-3.37-.32-6.61,4.61-8.65a48.77,48.77,0,0,1,12.57-3C29.07,65.18,40.39,65.57,51,69.74c3,1.17,6.12,2.16,9.14,3.28a48.08,48.08,0,0,0,27.15,1.73,120.08,120.08,0,0,0,14.5-4.28c5.43-1.86,10.76-3.87,16.33-5.52,18.8-5.57,37.78-6.08,56.86-.58,3.37,1,6.77,1.89,10.14,2.83,9.56,2.68,19.37,2.81,29.38,1.43,11.17-1.55,22-4.06,33.19-5.48,16.33-2.08,30.65.6,43.4,7.48,3.8,2.05,4.15,3.94,1.34,6.69-4,3.94-7.07,4.72-13.35,2.72-11.4-3.62-22.9-3.07-34.54-.85a123.29,123.29,0,0,0-15.39,3.91,75.53,75.53,0,0,1-36.27,2.54c-7.33-1.19-14.66-2.33-21.76-4A83.9,83.9,0,0,0,149.1,79.29Z"/><path class="cls-2" d="M31.12,34.42c6.64.25,12.94,1,18.55,3,16.77,5.93,33.26,4.81,49.91-.19A184.78,184.78,0,0,1,135.1,30a106.07,106.07,0,0,1,29,1.51c2,.35,3.95.71,5.82,1.23,14.54,4.08,28.88,3.49,43.35-.33a166.8,166.8,0,0,1,38.59-5.65c10.21-.26,19.84.78,28.7,4.39,4.34,1.76,8.94,3.25,13.29,5,6.79,2.75,7.29,9,1.14,12.45a7,7,0,0,1-4.54.79,15.12,15.12,0,0,1-3.38-.9C274.26,43.22,260.53,43,246.33,45c-8.61,1.18-16.86,3.14-25.21,4.87C215.67,51,210.21,52,204.55,52.61c-11.82,1.24-23.1-.19-34.14-2.89C167,48.88,163.53,48,160.2,47c-8.55-2.58-17.27-2.69-26.26-1.24-6.16,1-12.08,2.42-18,3.95a192.83,192.83,0,0,1-27.44,5.46,100.47,100.47,0,0,1-38.23-3.29,141.21,141.21,0,0,0-14.88-3.68,38.77,38.77,0,0,0-17.87.93c-7.54,2.31-11,.57-10.61-5,.13-1.76,1.33-3,3.22-4.2C16.17,36.29,23.55,35,31.12,34.42Z"/><path class="cls-1" d="M75.12,22.54c-5.63.08-10.89-1-16.15-2.06-7.79-1.57-15.41-3.49-23.4-4.64C28.1,14.77,21,15.16,14.29,17.68c-2.16.81-4.36,1.51-6.92.7C2.54,16.86,1.45,13.73,5,11s8-4.2,12.9-5.21a71.21,71.21,0,0,1,29.44.54c4.44,1,8.87,2,13.07,3.39,9.16,3,18.41,2.9,27.94,1.05,9.78-1.89,19.42-4.05,29-6.29a127.32,127.32,0,0,1,18.34-3,52.19,52.19,0,0,1,20.75,2.33c4.2,1.38,8.26,2.94,12.29,4.53a39.05,39.05,0,0,0,21.68,2.21c5.52-1,10.94-2.12,16.3-3.43A274.69,274.69,0,0,1,243.16.58c15.77-1.68,29.94.18,42.28,7.19,3.56,2,7.36,3.86,10.93,5.88,3,1.7,3.57,3.13,2,4.47s-4,1.55-7.17.27a92.87,92.87,0,0,0-18.77-5.76,105.06,105.06,0,0,0-41.51.62c-8.12,1.78-16.19,3.67-24.28,5.5-14.35,3.24-28.34,3.32-41.83-1.94-4-1.58-8.59-2.46-12.91-3.67-8.91-2.49-17.81-2.28-26.87-.49a149.49,149.49,0,0,0-17.51,4.76C97.33,20.77,86.36,22.05,75.12,22.54Z"/></g></g></svg>